{"title":"Toy.Story.3.2010.TS.V2.XviD.FEEL-FREE","uid":5643951,"size":1853931988,"categoryP":"video","categoryS":"movies","magnet":"?xt=urn:btih:6c6e65ea97ddd2c39b4cdeae84de46146e7bca30&amp;dn=Toy.Story.3.2010.TS.V2.XviD.FEEL-FREE&amp;tr=udp%3A%2F%2Ftracker.openbittorrent.com%3A80&amp;tr=udp%3A%2F%2Fopen.demonii.com%3A1337&amp;tr=udp%3A%2F%2Ftracker.coppersurfer.tk%3A6969&amp;tr=udp%3A%2F%2Fexodus.desync.com%3A6969","seeders":1,"leechers":0,"uploader":"raymondhome","files":-1,"time":1277223945,"description":"Love for All and Sharing is the first step to solving all the problems of humanity.\n\nWebsites I want to share.\n\n    &lt;a href=&quot;\nhttp://www.shareintl.org/&quot; rel=&quot;nofollow&quot; target=&quot;_NEW&quot;&gt;\nhttp://www.shareintl.org/&lt;/a&gt;\n\n    &lt;a href=&quot;\nhttp://www.lightmiddleway.com&quot; rel=&quot;nofollow&quot; target=&quot;_NEW&quot;&gt;\nhttp://www.lightmiddleway.com&lt;/a&gt;\n\n\nThank you very much\n\nNo credit for me...credit to EVERYONE for sharing\n &lt;a href=&quot;\nhttp://thepiratebay.se/user/raymondhome/&quot; rel=&quot;nofollow&quot; target=&quot;_NEW&quot;&gt;\nhttp://thepiratebay.se/user/raymondhome/&lt;/a&gt;\n\nPLOT\nWoody, Buzz, and the rest of their toy-box friends are dumped in a day-care center after their owner, Andy, departs for college.\n\nIMDb RATING: 9.5/10 (1,701 votes)\n\nLanguage: English\nSource Video:Relizlab.Thanks\nSource Audio:Ice/Prism.Thanks\nEncoder: Tony2\n...............................................\nGeneral\nDuration : 1h 34mn\nOverall bit rate : 2 625 Kbps\n...............................................\nVideo\nFormat : S-Mpeg 4 v2\nCodec ID : MP42\nCodec ID/Info : Microsoft MPEG-4 V2\nDuration : 1h 34mn\nBit rate : 1 200 Kbps\nWidth : 704 pixels\nHeight : 304 pixels\nDisplay aspect ratio : 2.35:1\nFrame rate : 25.000 fps\nResolution : 24 bits\nBits/(Pixel*Frame) : 0.224\nStream size : 808 MiB (46%)\n...............................................\nAudio\nFormat : PCM\nFormat settings, Endianness : Little\nFormat settings, Sign : Unsigned\nCodec ID : 1\nCodec ID/Hint : Microsoft\nDuration : 1h 34mn\nBit rate mode : Constant\nBit rate : 1 411.2 Kbps\nChannel(s) : 2 channels\nSampling rate : 44.1 KHz\nResolution : 16 bits\nStream size : 950 MiB (54%)\nInterleave, duration : 24 ms (0.60 video frame)\nInterleave, preload duration : 23 ms\n\ncredit FEEL-FREE &amp; pitic BIG BIG BIG TIME &amp; to all the people who made it possible for us to share this...especially EVERYONE involve in the production of the movie...IF YOU LIKE IT...BUY IT :)\n\n*****help what we can with others in need...the world is ONE big family*****","torrent":{"xt":"urn:btih:6c6e65ea97ddd2c39b4cdeae84de46146e7bca30","amp;dn":"Toy.Story.3.2010.TS.V2.XviD.FEEL-FREE","amp;tr":["udp%3A%2F%2Ftracker.openbittorrent.com%3A80","udp%3A%2F%2Fopen.demonii.com%3A1337","udp%3A%2F%2Ftracker.coppersurfer.tk%3A6969","udp%3A%2F%2Fexodus.desync.com%3A6969"],"infoHash":"6c6e65ea97ddd2c39b4cdeae84de46146e7bca30","infoHashBuffer":{"type":"Buffer","data":[108,110,101,234,151,221,210,195,155,76,222,174,132,222,70,20,110,123,202,48]},"announce":[],"urlList":[]}}